<?xml version="1.0" encoding="UTF-8" standalone="no"?>
<!DOCTYPE svg PUBLIC "-//W3C//DTD SVG 20010904//EN"
              "http://www.w3.org/TR/2001/REC-SVG-20010904/DTD/svg10.dtd">

<svg xmlns="http://www.w3.org/2000/svg"
     width="84.6668mm" height="21.1667mm"
     viewBox="0 0 2000 500">
  <path fill="#666" stroke="none"
        d="M 145.00,28.00
           C 145.00,28.00 660.00,28.00 660.00,28.00
             660.00,28.00 641.42,61.00 641.42,61.00
             641.42,61.00 606.85,121.00 606.85,121.00
             606.85,121.00 490.85,322.00 490.85,322.00
             490.85,322.00 431.42,425.00 431.42,425.00
             431.42,425.00 413.00,457.00 413.00,457.00
             413.00,457.00 402.00,474.00 402.00,474.00
             402.00,474.00 378.15,433.00 378.15,433.00
             378.15,433.00 348.15,381.00 348.15,381.00
             348.15,381.00 331.99,353.00 331.99,353.00
             331.99,353.00 322.00,334.00 322.00,334.00
             322.00,334.00 320.00,334.00 320.00,334.00
             320.00,334.00 311.01,351.00 311.01,351.00
             311.01,351.00 295.42,378.00 295.42,378.00
             295.42,378.00 263.58,433.00 263.58,433.00
             263.58,433.00 240.00,474.00 240.00,474.00
             240.00,474.00 238.00,474.00 238.00,474.00
             238.00,474.00 198.42,405.00 198.42,405.00
             198.42,405.00 129.58,286.00 129.58,286.00
             129.58,286.00 105.80,245.00 105.80,245.00
             105.80,245.00 91.00,218.00 91.00,218.00
             91.00,218.00 254.00,218.00 254.00,218.00
             254.00,218.00 182.58,94.00 182.58,94.00
             182.58,94.00 145.00,28.00 145.00,28.00 Z
           M 623.00,49.00
           C 623.00,49.00 182.00,49.00 182.00,49.00
             182.00,49.00 205.15,91.00 205.15,91.00
             205.15,91.00 256.42,180.00 256.42,180.00
             256.42,180.00 271.42,206.00 271.42,206.00
             271.42,206.00 279.21,216.98 279.21,216.98
             279.21,216.98 287.00,218.00 287.00,218.00
             287.00,218.00 388.00,218.00 388.00,218.00
             388.00,218.00 348.72,285.00 348.72,285.00
             348.72,285.00 338.28,303.00 338.28,303.00
             338.28,303.00 334.06,312.00 334.06,312.00
             334.06,312.00 338.42,322.00 338.42,322.00
             338.42,322.00 350.58,343.00 350.58,343.00
             350.58,343.00 384.58,402.00 384.58,402.00
             384.58,402.00 403.00,432.00 403.00,432.00
             403.00,432.00 447.42,355.00 447.42,355.00
             447.42,355.00 548.42,180.00 548.42,180.00
             548.42,180.00 599.85,91.00 599.85,91.00
             599.85,91.00 623.00,49.00 623.00,49.00 Z
           M 1409.00,129.00
           C 1409.00,129.00 1427.25,165.00 1427.25,165.00
             1427.25,165.00 1465.26,243.00 1465.26,243.00
             1465.26,243.00 1502.74,319.00 1502.74,319.00
             1502.74,319.00 1529.25,374.00 1529.25,374.00
             1529.25,374.00 1551.25,419.00 1551.25,419.00
             1551.25,419.00 1575.00,468.00 1575.00,468.00
             1575.00,468.00 1567.00,468.00 1567.00,468.00
             1567.00,468.00 1559.63,467.01 1559.63,467.01
             1559.63,467.01 1548.25,446.00 1548.25,446.00
             1548.25,446.00 1512.25,373.00 1512.25,373.00
             1512.25,373.00 1501.75,352.00 1501.75,352.00
             1501.75,352.00 1495.79,343.02 1495.79,343.02
             1495.79,343.02 1488.00,342.00 1488.00,342.00
             1488.00,342.00 1328.00,342.00 1328.00,342.00
             1328.00,342.00 1320.39,343.02 1320.39,343.02
             1320.39,343.02 1314.42,353.00 1314.42,353.00
             1314.42,353.00 1304.75,373.00 1304.75,373.00
             1304.75,373.00 1271.25,441.00 1271.25,441.00
             1271.25,441.00 1262.75,459.00 1262.75,459.00
             1262.75,459.00 1257.61,466.98 1257.61,466.98
             1257.61,466.98 1244.00,468.00 1244.00,468.00
             1244.00,468.00 1258.75,438.00 1258.75,438.00
             1258.75,438.00 1278.74,397.00 1278.74,397.00
             1278.74,397.00 1358.26,233.00 1358.26,233.00
             1358.26,233.00 1396.26,155.00 1396.26,155.00
             1396.26,155.00 1409.00,129.00 1409.00,129.00 Z
           M 1033.00,137.00
           C 1033.00,137.00 1047.00,137.00 1047.00,137.00
             1047.00,137.00 1047.00,468.00 1047.00,468.00
             1047.00,468.00 1033.00,468.00 1033.00,468.00
             1033.00,468.00 1033.00,439.00 1033.00,439.00
             1033.00,439.00 1032.00,421.00 1032.00,421.00
             1028.73,431.28 1016.38,443.42 1008.00,449.99
             980.06,471.88 942.76,478.89 909.00,467.65
             876.22,456.73 849.11,427.62 840.90,394.00
             838.66,384.83 837.89,374.42 838.00,365.00
             838.44,327.61 863.38,290.25 897.00,274.32
             917.65,264.53 941.71,261.96 964.00,266.45
             983.54,270.38 1004.87,281.70 1018.57,296.17
             1025.10,303.07 1027.99,308.34 1033.00,316.00
             1033.00,316.00 1033.00,137.00 1033.00,137.00 Z
           M 1766.00,138.00
           C 1766.00,138.00 1780.00,138.00 1780.00,138.00
             1780.00,138.00 1780.00,338.00 1780.00,338.00
             1780.00,338.00 1797.00,322.85 1797.00,322.85
             1797.00,322.85 1829.00,294.72 1829.00,294.72
             1829.00,294.72 1848.00,278.05 1848.00,278.05
             1848.00,278.05 1859.00,269.60 1859.00,269.60
             1859.00,269.60 1876.00,269.00 1876.00,269.00
             1871.36,275.42 1858.52,285.61 1852.00,291.28
             1852.00,291.28 1811.00,327.05 1811.00,327.05
             1811.00,327.05 1794.00,341.95 1794.00,341.95
             1792.50,343.29 1788.72,346.25 1788.20,348.09
             1787.31,351.20 1792.03,355.02 1794.00,357.00
             1794.00,357.00 1815.00,379.00 1815.00,379.00
             1815.00,379.00 1852.09,418.00 1852.09,418.00
             1852.09,418.00 1873.17,440.00 1873.17,440.00
             1881.69,449.42 1891.59,457.60 1899.00,468.00
             1899.00,468.00 1886.00,468.00 1886.00,468.00
             1877.26,467.83 1875.25,462.99 1869.83,457.00
             1869.83,457.00 1844.83,431.00 1844.83,431.00
             1844.83,431.00 1825.04,411.00 1825.04,411.00
             1825.04,411.00 1780.00,364.00 1780.00,364.00
             1780.00,364.00 1780.00,468.00 1780.00,468.00
             1780.00,468.00 1766.00,468.00 1766.00,468.00
             1766.00,468.00 1766.00,138.00 1766.00,138.00 Z
           M 1409.00,160.00
           C 1409.00,160.00 1399.75,176.00 1399.75,176.00
             1399.75,176.00 1382.75,211.00 1382.75,211.00
             1382.75,211.00 1347.75,283.00 1347.75,283.00
             1347.75,283.00 1326.00,329.00 1326.00,329.00
             1326.00,329.00 1491.00,329.00 1491.00,329.00
             1491.00,329.00 1465.25,275.00 1465.25,275.00
             1465.25,275.00 1435.75,215.00 1435.75,215.00
             1435.75,215.00 1418.74,180.00 1418.74,180.00
             1418.74,180.00 1409.00,160.00 1409.00,160.00 Z
           M 784.00,197.47
           C 788.56,196.93 794.18,197.34 797.30,201.22
             801.43,206.36 801.23,218.57 791.00,220.66
             786.59,221.56 780.59,221.04 777.28,217.72
             772.76,213.21 773.11,203.68 778.22,199.72
             780.00,198.34 781.89,197.99 784.00,197.47 Z
           M 240.00,432.00
           C 240.00,432.00 289.00,347.00 289.00,347.00
             289.00,347.00 302.28,324.00 302.28,324.00
             302.28,324.00 307.91,313.00 307.91,313.00
             307.91,313.00 303.72,303.00 303.72,303.00
             303.72,303.00 289.85,279.00 289.85,279.00
             289.85,279.00 274.28,252.00 274.28,252.00
             274.28,252.00 266.39,239.99 266.39,239.99
             266.39,239.99 259.00,239.00 259.00,239.00
             259.00,239.00 127.00,239.00 127.00,239.00
             127.00,239.00 158.58,294.00 158.58,294.00
             158.58,294.00 212.42,387.00 212.42,387.00
             212.42,387.00 238.00,432.00 238.00,432.00
             238.00,432.00 240.00,432.00 240.00,432.00 Z
           M 621.00,264.23
           C 621.00,264.23 625.00,264.23 625.00,264.23
             630.06,263.84 631.57,264.59 636.00,264.91
             688.91,268.78 730.72,312.93 731.99,366.00
             732.91,404.86 711.09,440.87 678.00,460.55
             661.18,470.55 641.21,473.22 622.00,473.00
             551.31,472.17 502.22,394.77 528.45,330.00
             539.21,303.43 563.82,279.43 591.00,270.08
             602.60,266.09 609.46,266.06 621.00,264.23 Z
           M 1631.00,298.00
           C 1633.26,292.10 1636.50,288.39 1641.00,284.04
             1657.15,268.43 1680.10,262.28 1702.00,265.16
             1709.16,266.10 1717.79,269.37 1724.00,273.01
             1726.16,274.27 1729.68,276.19 1730.98,278.33
             1732.22,280.38 1732.00,283.65 1732.00,286.00
             1732.00,286.00 1732.00,296.00 1732.00,296.00
             1732.00,296.00 1722.00,288.16 1722.00,288.16
             1710.96,280.11 1700.55,276.85 1687.00,277.00
             1665.40,277.26 1643.67,293.77 1634.90,313.00
             1631.41,320.64 1630.01,328.66 1630.00,337.00
             1630.00,337.00 1630.00,468.00 1630.00,468.00
             1630.00,468.00 1616.00,468.00 1616.00,468.00
             1616.00,468.00 1616.00,269.00 1616.00,269.00
             1616.00,269.00 1630.00,269.00 1630.00,269.00
             1630.00,269.00 1631.00,298.00 1631.00,298.00 Z
           M 780.00,270.00
           C 780.00,270.00 794.00,270.00 794.00,270.00
             794.00,270.00 794.00,468.00 794.00,468.00
             794.00,468.00 780.00,468.00 780.00,468.00
             780.00,468.00 780.00,270.00 780.00,270.00 Z
           M 616.00,277.29
           C 602.81,279.30 592.55,282.56 581.00,289.45
             556.09,304.31 536.05,334.46 536.00,364.00
             535.98,376.96 535.65,384.23 539.75,397.00
             550.01,428.99 584.38,459.59 619.00,460.00
             639.79,460.24 651.05,459.97 670.00,449.69
             680.57,443.96 688.42,437.21 696.08,428.00
             737.46,378.24 716.70,302.24 655.00,281.08
             642.99,276.96 628.59,276.11 616.00,277.29 Z
           M 932.00,277.29
           C 922.09,278.80 913.11,280.99 904.00,285.32
             880.46,296.50 860.64,321.69 854.65,347.00
             844.47,390.06 865.92,435.55 907.00,453.28
             915.68,457.03 925.49,459.89 935.00,460.00
             953.67,460.21 966.94,459.88 984.00,450.69
             996.82,443.79 1006.51,435.36 1015.55,424.00
             1049.57,381.23 1035.35,318.69 990.00,290.23
             972.21,279.07 952.77,275.35 932.00,277.29 Z" />
</svg>
